<mxfile host="app.diagrams.net" agent="Mozilla/5.0 (Windows NT 10.0; Win64; x64) AppleWebKit/537.36 (KHTML, like Gecko) Chrome/140.0.0.0 Safari/537.36" version="28.2.5" pages="2">
  <diagram name="Page-2" id="ShEL1LZ5DCt3HKRyOxHI">
    <mxGraphModel grid="1" page="1" gridSize="10" guides="1" tooltips="1" connect="1" arrows="1" fold="1" pageScale="1" pageWidth="850" pageHeight="1100" math="0" shadow="0">
      <root>
        <mxCell id="0" />
        <mxCell id="1" parent="0" />
        <mxCell id="5c5kSIC_IQ6q4t-RuQzD-1" value="&lt;span style=&quot;font-size: 20px;&quot;&gt;Admin&lt;/span&gt;" style="rounded=0;whiteSpace=wrap;html=1;" vertex="1" parent="1">
          <mxGeometry x="550" y="1040" width="120" height="60" as="geometry" />
        </mxCell>
        <mxCell id="5c5kSIC_IQ6q4t-RuQzD-2" value="&lt;span style=&quot;font-size: 16px;&quot;&gt;semester&lt;/span&gt;" style="ellipse;whiteSpace=wrap;html=1;" vertex="1" parent="1">
          <mxGeometry x="430" y="500" width="120" height="80" as="geometry" />
        </mxCell>
        <mxCell id="5c5kSIC_IQ6q4t-RuQzD-3" value="&lt;span style=&quot;font-size: 19px;&quot;&gt;students&lt;/span&gt;" style="rounded=0;whiteSpace=wrap;html=1;" vertex="1" parent="1">
          <mxGeometry x="480" y="670" width="120" height="60" as="geometry" />
        </mxCell>
        <mxCell id="5c5kSIC_IQ6q4t-RuQzD-4" value="&lt;span style=&quot;font-size: 16px;&quot;&gt;department&lt;/span&gt;" style="ellipse;whiteSpace=wrap;html=1;" vertex="1" parent="1">
          <mxGeometry x="580" y="500" width="120" height="80" as="geometry" />
        </mxCell>
        <mxCell id="5c5kSIC_IQ6q4t-RuQzD-5" value="&lt;span style=&quot;font-size: 16px;&quot;&gt;name&lt;/span&gt;" style="ellipse;whiteSpace=wrap;html=1;" vertex="1" parent="1">
          <mxGeometry x="300" y="670" width="120" height="80" as="geometry" />
        </mxCell>
        <mxCell id="5c5kSIC_IQ6q4t-RuQzD-6" value="&lt;span style=&quot;font-size: 16px;&quot;&gt;batch&lt;/span&gt;" style="ellipse;whiteSpace=wrap;html=1;" vertex="1" parent="1">
          <mxGeometry x="310" y="560" width="120" height="80" as="geometry" />
        </mxCell>
        <mxCell id="5c5kSIC_IQ6q4t-RuQzD-7" value="&lt;font style=&quot;font-size: 14px;&quot;&gt;Has&lt;/font&gt;" style="rhombus;whiteSpace=wrap;html=1;" vertex="1" parent="1">
          <mxGeometry x="850" y="660" width="80" height="80" as="geometry" />
        </mxCell>
        <mxCell id="5c5kSIC_IQ6q4t-RuQzD-8" value="&lt;span style=&quot;font-size: 18px;&quot;&gt;faculty&lt;/span&gt;" style="rounded=0;whiteSpace=wrap;html=1;" vertex="1" parent="1">
          <mxGeometry x="1220" y="780" width="120" height="60" as="geometry" />
        </mxCell>
        <mxCell id="5c5kSIC_IQ6q4t-RuQzD-9" value="&lt;span style=&quot;font-size: 16px;&quot;&gt;email&lt;/span&gt;" style="ellipse;whiteSpace=wrap;html=1;" vertex="1" parent="1">
          <mxGeometry x="1445" y="780" width="120" height="80" as="geometry" />
        </mxCell>
        <mxCell id="5c5kSIC_IQ6q4t-RuQzD-10" value="&lt;span style=&quot;font-size: 18px;&quot;&gt;Seating&lt;/span&gt;" style="rounded=0;whiteSpace=wrap;html=1;" vertex="1" parent="1">
          <mxGeometry x="655" y="380" width="120" height="60" as="geometry" />
        </mxCell>
        <mxCell id="5c5kSIC_IQ6q4t-RuQzD-11" value="&lt;span style=&quot;font-size: 16px;&quot;&gt;exam_id&lt;/span&gt;" style="ellipse;whiteSpace=wrap;html=1;" vertex="1" parent="1">
          <mxGeometry x="480" y="230" width="120" height="80" as="geometry" />
        </mxCell>
        <mxCell id="5c5kSIC_IQ6q4t-RuQzD-12" value="&lt;span style=&quot;font-size: 16px;&quot;&gt;room_id&lt;/span&gt;" style="ellipse;whiteSpace=wrap;html=1;" vertex="1" parent="1">
          <mxGeometry x="590" y="170" width="120" height="80" as="geometry" />
        </mxCell>
        <mxCell id="5c5kSIC_IQ6q4t-RuQzD-13" value="&lt;span style=&quot;font-size: 16px;&quot;&gt;department&lt;/span&gt;" style="ellipse;whiteSpace=wrap;html=1;" vertex="1" parent="1">
          <mxGeometry x="1430" y="870" width="120" height="80" as="geometry" />
        </mxCell>
        <mxCell id="5c5kSIC_IQ6q4t-RuQzD-14" value="&lt;span style=&quot;font-size: 16px;&quot;&gt;seat_no&lt;/span&gt;" style="ellipse;whiteSpace=wrap;html=1;" vertex="1" parent="1">
          <mxGeometry x="830" y="290" width="120" height="80" as="geometry" />
        </mxCell>
        <mxCell id="5c5kSIC_IQ6q4t-RuQzD-15" value="&lt;span style=&quot;font-size: 15px;&quot;&gt;views&lt;/span&gt;" style="rhombus;whiteSpace=wrap;html=1;" vertex="1" parent="1">
          <mxGeometry x="720" y="470" width="80" height="80" as="geometry" />
        </mxCell>
        <mxCell id="5c5kSIC_IQ6q4t-RuQzD-16" value="&lt;span style=&quot;font-size: 16px;&quot;&gt;reg_no&lt;/span&gt;" style="ellipse;whiteSpace=wrap;html=1;" vertex="1" parent="1">
          <mxGeometry x="260" y="800" width="120" height="80" as="geometry" />
        </mxCell>
        <mxCell id="5c5kSIC_IQ6q4t-RuQzD-17" value="&lt;span style=&quot;font-size: 16px;&quot;&gt;name&lt;/span&gt;" style="ellipse;whiteSpace=wrap;html=1;" vertex="1" parent="1">
          <mxGeometry x="1350" y="690" width="120" height="80" as="geometry" />
        </mxCell>
        <mxCell id="5c5kSIC_IQ6q4t-RuQzD-18" value="&lt;span style=&quot;font-size: 16px;&quot;&gt;student_id&lt;/span&gt;" style="ellipse;whiteSpace=wrap;html=1;" vertex="1" parent="1">
          <mxGeometry x="740" y="200" width="120" height="80" as="geometry" />
        </mxCell>
        <mxCell id="5c5kSIC_IQ6q4t-RuQzD-19" value="&lt;span style=&quot;font-size: 16px;&quot;&gt;exams&lt;/span&gt;" style="rounded=0;whiteSpace=wrap;html=1;" vertex="1" parent="1">
          <mxGeometry x="1210" y="460" width="120" height="60" as="geometry" />
        </mxCell>
        <mxCell id="5c5kSIC_IQ6q4t-RuQzD-20" value="&lt;span style=&quot;font-size: 16px;&quot;&gt;exam_date&lt;/span&gt;" style="ellipse;whiteSpace=wrap;html=1;" vertex="1" parent="1">
          <mxGeometry x="1150" y="290" width="120" height="80" as="geometry" />
        </mxCell>
        <mxCell id="5c5kSIC_IQ6q4t-RuQzD-21" value="&lt;span style=&quot;font-size: 16px;&quot;&gt;id&lt;/span&gt;" style="ellipse;whiteSpace=wrap;html=1;" vertex="1" parent="1">
          <mxGeometry x="990" y="400" width="120" height="80" as="geometry" />
        </mxCell>
        <mxCell id="5c5kSIC_IQ6q4t-RuQzD-22" value="&lt;span style=&quot;font-size: 16px;&quot;&gt;session&lt;/span&gt;" style="ellipse;whiteSpace=wrap;html=1;" vertex="1" parent="1">
          <mxGeometry x="1410" y="330" width="120" height="80" as="geometry" />
        </mxCell>
        <mxCell id="5c5kSIC_IQ6q4t-RuQzD-23" value="&lt;span style=&quot;font-size: 16px;&quot;&gt;subject&lt;/span&gt;" style="ellipse;whiteSpace=wrap;html=1;" vertex="1" parent="1">
          <mxGeometry x="1280" y="300" width="120" height="80" as="geometry" />
        </mxCell>
        <mxCell id="5c5kSIC_IQ6q4t-RuQzD-24" value="&lt;font style=&quot;font-size: 14px;&quot;&gt;Manages&lt;/font&gt;" style="rhombus;whiteSpace=wrap;html=1;" vertex="1" parent="1">
          <mxGeometry x="630" y="780" width="80" height="80" as="geometry" />
        </mxCell>
        <mxCell id="5c5kSIC_IQ6q4t-RuQzD-25" value="&lt;font style=&quot;font-size: 14px;&quot;&gt;Manages&lt;/font&gt;" style="rhombus;whiteSpace=wrap;html=1;" vertex="1" parent="1">
          <mxGeometry x="260" y="110" width="80" height="80" as="geometry" />
        </mxCell>
        <mxCell id="5c5kSIC_IQ6q4t-RuQzD-26" value="&lt;span style=&quot;font-size: 16px;&quot;&gt;login_history&lt;/span&gt;" style="rounded=0;whiteSpace=wrap;html=1;" vertex="1" parent="1">
          <mxGeometry x="790" y="830" width="120" height="60" as="geometry" />
        </mxCell>
        <mxCell id="5c5kSIC_IQ6q4t-RuQzD-27" value="&lt;span style=&quot;font-size: 16px;&quot;&gt;user_id&lt;/span&gt;" style="ellipse;whiteSpace=wrap;html=1;" vertex="1" parent="1">
          <mxGeometry x="860" y="940" width="120" height="80" as="geometry" />
        </mxCell>
        <mxCell id="5c5kSIC_IQ6q4t-RuQzD-28" value="&lt;span style=&quot;font-size: 16px;&quot;&gt;login_timestamp&lt;/span&gt;" style="ellipse;whiteSpace=wrap;html=1;" vertex="1" parent="1">
          <mxGeometry x="960" y="830" width="130" height="90" as="geometry" />
        </mxCell>
        <mxCell id="5c5kSIC_IQ6q4t-RuQzD-29" value="&lt;span style=&quot;font-size: 18px;&quot;&gt;invigilation&lt;/span&gt;" style="rounded=0;whiteSpace=wrap;html=1;" vertex="1" parent="1">
          <mxGeometry x="1080" y="960" width="120" height="60" as="geometry" />
        </mxCell>
        <mxCell id="5c5kSIC_IQ6q4t-RuQzD-30" value="&lt;span style=&quot;font-size: 16px;&quot;&gt;exam_id&lt;/span&gt;" style="ellipse;whiteSpace=wrap;html=1;" vertex="1" parent="1">
          <mxGeometry x="1160" y="1150" width="120" height="80" as="geometry" />
        </mxCell>
        <mxCell id="5c5kSIC_IQ6q4t-RuQzD-31" value="&lt;span style=&quot;font-size: 16px;&quot;&gt;room_id&lt;/span&gt;" style="ellipse;whiteSpace=wrap;html=1;" vertex="1" parent="1">
          <mxGeometry x="1310" y="1160" width="120" height="80" as="geometry" />
        </mxCell>
        <mxCell id="5c5kSIC_IQ6q4t-RuQzD-32" value="&lt;span style=&quot;font-size: 16px;&quot;&gt;faculty_id&lt;/span&gt;" style="ellipse;whiteSpace=wrap;html=1;" vertex="1" parent="1">
          <mxGeometry x="1290" y="1030" width="120" height="80" as="geometry" />
        </mxCell>
        <mxCell id="5c5kSIC_IQ6q4t-RuQzD-33" value="&lt;span style=&quot;font-size: 14px;&quot;&gt;views&lt;/span&gt;" style="rhombus;whiteSpace=wrap;html=1;rotation=-45;" vertex="1" parent="1">
          <mxGeometry x="1200" y="860" width="50" height="80" as="geometry" />
        </mxCell>
        <mxCell id="5c5kSIC_IQ6q4t-RuQzD-34" value="&lt;span style=&quot;font-size: 18px;&quot;&gt;rooms&lt;/span&gt;" style="rounded=0;whiteSpace=wrap;html=1;" vertex="1" parent="1">
          <mxGeometry x="1590" y="570" width="120" height="60" as="geometry" />
        </mxCell>
        <mxCell id="5c5kSIC_IQ6q4t-RuQzD-35" value="&lt;span style=&quot;font-size: 16px;&quot;&gt;room_no&lt;/span&gt;" style="ellipse;whiteSpace=wrap;html=1;" vertex="1" parent="1">
          <mxGeometry x="1565" y="730" width="120" height="80" as="geometry" />
        </mxCell>
        <mxCell id="5c5kSIC_IQ6q4t-RuQzD-36" value="&lt;span style=&quot;font-size: 16px;&quot;&gt;capacity&lt;/span&gt;" style="ellipse;whiteSpace=wrap;html=1;direction=west;" vertex="1" parent="1">
          <mxGeometry x="1730" y="670" width="120" height="80" as="geometry" />
        </mxCell>
        <mxCell id="5c5kSIC_IQ6q4t-RuQzD-37" value="&lt;span style=&quot;font-size: 16px;&quot;&gt;location&lt;/span&gt;" style="ellipse;whiteSpace=wrap;html=1;" vertex="1" parent="1">
          <mxGeometry x="1790" y="530" width="120" height="80" as="geometry" />
        </mxCell>
        <mxCell id="5c5kSIC_IQ6q4t-RuQzD-38" value="&lt;font style=&quot;font-size: 14px;&quot;&gt;Manages&lt;/font&gt;" style="rhombus;whiteSpace=wrap;html=1;direction=south;" vertex="1" parent="1">
          <mxGeometry x="1540" y="220" width="80" height="80" as="geometry" />
        </mxCell>
        <mxCell id="5c5kSIC_IQ6q4t-RuQzD-39" value="" style="endArrow=none;html=1;rounded=0;exitX=1;exitY=0.5;exitDx=0;exitDy=0;entryX=0;entryY=0.5;entryDx=0;entryDy=0;" edge="1" parent="1" source="5c5kSIC_IQ6q4t-RuQzD-3" target="5c5kSIC_IQ6q4t-RuQzD-7">
          <mxGeometry width="50" height="50" relative="1" as="geometry">
            <mxPoint x="690" y="690" as="sourcePoint" />
            <mxPoint x="740" y="640" as="targetPoint" />
          </mxGeometry>
        </mxCell>
        <mxCell id="5c5kSIC_IQ6q4t-RuQzD-40" value="" style="endArrow=none;html=1;rounded=0;exitX=1;exitY=0.5;exitDx=0;exitDy=0;entryX=0.5;entryY=1;entryDx=0;entryDy=0;" edge="1" parent="1" target="5c5kSIC_IQ6q4t-RuQzD-19">
          <mxGeometry width="50" height="50" relative="1" as="geometry">
            <mxPoint x="930" y="699.29" as="sourcePoint" />
            <mxPoint x="1180" y="699.29" as="targetPoint" />
          </mxGeometry>
        </mxCell>
        <mxCell id="5c5kSIC_IQ6q4t-RuQzD-41" value="" style="endArrow=none;html=1;rounded=0;exitX=1;exitY=0.5;exitDx=0;exitDy=0;entryX=0;entryY=0.5;entryDx=0;entryDy=0;" edge="1" parent="1" target="5c5kSIC_IQ6q4t-RuQzD-19">
          <mxGeometry width="50" height="50" relative="1" as="geometry">
            <mxPoint x="1110" y="438.57" as="sourcePoint" />
            <mxPoint x="1360" y="438.57" as="targetPoint" />
          </mxGeometry>
        </mxCell>
        <mxCell id="5c5kSIC_IQ6q4t-RuQzD-42" value="" style="endArrow=none;html=1;rounded=0;exitX=0.611;exitY=0.995;exitDx=0;exitDy=0;exitPerimeter=0;entryX=0.163;entryY=-0.002;entryDx=0;entryDy=0;entryPerimeter=0;" edge="1" parent="1" source="5c5kSIC_IQ6q4t-RuQzD-20" target="5c5kSIC_IQ6q4t-RuQzD-19">
          <mxGeometry width="50" height="50" relative="1" as="geometry">
            <mxPoint x="1190" y="370" as="sourcePoint" />
            <mxPoint x="1230" y="450" as="targetPoint" />
          </mxGeometry>
        </mxCell>
        <mxCell id="5c5kSIC_IQ6q4t-RuQzD-43" value="" style="endArrow=none;html=1;rounded=0;exitX=0.5;exitY=1;exitDx=0;exitDy=0;entryX=0.75;entryY=0;entryDx=0;entryDy=0;" edge="1" parent="1" source="5c5kSIC_IQ6q4t-RuQzD-23" target="5c5kSIC_IQ6q4t-RuQzD-19">
          <mxGeometry width="50" height="50" relative="1" as="geometry">
            <mxPoint x="1330" y="420" as="sourcePoint" />
            <mxPoint x="1580" y="420" as="targetPoint" />
          </mxGeometry>
        </mxCell>
        <mxCell id="5c5kSIC_IQ6q4t-RuQzD-44" value="" style="endArrow=none;html=1;rounded=0;exitX=1;exitY=0.25;exitDx=0;exitDy=0;entryX=0;entryY=1;entryDx=0;entryDy=0;" edge="1" parent="1" source="5c5kSIC_IQ6q4t-RuQzD-19" target="5c5kSIC_IQ6q4t-RuQzD-22">
          <mxGeometry width="50" height="50" relative="1" as="geometry">
            <mxPoint x="1350" y="460" as="sourcePoint" />
            <mxPoint x="1600" y="460" as="targetPoint" />
          </mxGeometry>
        </mxCell>
        <mxCell id="5c5kSIC_IQ6q4t-RuQzD-45" value="" style="endArrow=none;html=1;rounded=0;exitX=0.311;exitY=1.038;exitDx=0;exitDy=0;entryX=0.714;entryY=0.023;entryDx=0;entryDy=0;exitPerimeter=0;entryPerimeter=0;" edge="1" parent="1" source="5c5kSIC_IQ6q4t-RuQzD-34" target="5c5kSIC_IQ6q4t-RuQzD-35">
          <mxGeometry width="50" height="50" relative="1" as="geometry">
            <mxPoint x="1550" y="620" as="sourcePoint" />
            <mxPoint x="1800" y="620" as="targetPoint" />
          </mxGeometry>
        </mxCell>
        <mxCell id="5c5kSIC_IQ6q4t-RuQzD-46" value="" style="endArrow=none;html=1;rounded=0;exitX=0.808;exitY=1.062;exitDx=0;exitDy=0;entryX=0.5;entryY=1;entryDx=0;entryDy=0;exitPerimeter=0;" edge="1" parent="1" source="5c5kSIC_IQ6q4t-RuQzD-34" target="5c5kSIC_IQ6q4t-RuQzD-36">
          <mxGeometry width="50" height="50" relative="1" as="geometry">
            <mxPoint x="1650" y="660" as="sourcePoint" />
            <mxPoint x="1900" y="660" as="targetPoint" />
          </mxGeometry>
        </mxCell>
        <mxCell id="5c5kSIC_IQ6q4t-RuQzD-47" value="" style="endArrow=none;html=1;rounded=0;exitX=1.008;exitY=0.619;exitDx=0;exitDy=0;entryX=0;entryY=0;entryDx=0;entryDy=0;exitPerimeter=0;" edge="1" parent="1" source="5c5kSIC_IQ6q4t-RuQzD-34" target="5c5kSIC_IQ6q4t-RuQzD-37">
          <mxGeometry width="50" height="50" relative="1" as="geometry">
            <mxPoint x="1750" y="610" as="sourcePoint" />
            <mxPoint x="2000" y="610" as="targetPoint" />
          </mxGeometry>
        </mxCell>
        <mxCell id="5c5kSIC_IQ6q4t-RuQzD-48" value="" style="endArrow=none;html=1;rounded=0;exitX=1;exitY=0.5;exitDx=0;exitDy=0;entryX=0;entryY=0.5;entryDx=0;entryDy=0;" edge="1" parent="1" source="5c5kSIC_IQ6q4t-RuQzD-8" target="5c5kSIC_IQ6q4t-RuQzD-17">
          <mxGeometry width="50" height="50" relative="1" as="geometry">
            <mxPoint x="1350" y="800" as="sourcePoint" />
            <mxPoint x="1600" y="800" as="targetPoint" />
          </mxGeometry>
        </mxCell>
        <mxCell id="5c5kSIC_IQ6q4t-RuQzD-49" value="" style="endArrow=none;html=1;rounded=0;exitX=1;exitY=0.75;exitDx=0;exitDy=0;entryX=0.013;entryY=0.336;entryDx=0;entryDy=0;entryPerimeter=0;" edge="1" parent="1" source="5c5kSIC_IQ6q4t-RuQzD-8" target="5c5kSIC_IQ6q4t-RuQzD-9">
          <mxGeometry width="50" height="50" relative="1" as="geometry">
            <mxPoint x="1410" y="870" as="sourcePoint" />
            <mxPoint x="1660" y="870" as="targetPoint" />
          </mxGeometry>
        </mxCell>
        <mxCell id="5c5kSIC_IQ6q4t-RuQzD-50" value="" style="endArrow=none;html=1;rounded=0;entryX=0.381;entryY=0;entryDx=0;entryDy=0;exitX=1;exitY=1;exitDx=0;exitDy=0;entryPerimeter=0;" edge="1" parent="1" source="5c5kSIC_IQ6q4t-RuQzD-8" target="5c5kSIC_IQ6q4t-RuQzD-13">
          <mxGeometry width="50" height="50" relative="1" as="geometry">
            <mxPoint x="1320" y="880" as="sourcePoint" />
            <mxPoint x="1570" y="880" as="targetPoint" />
          </mxGeometry>
        </mxCell>
        <mxCell id="5c5kSIC_IQ6q4t-RuQzD-51" value="" style="endArrow=none;html=1;rounded=0;exitX=0.406;exitY=1.022;exitDx=0;exitDy=0;entryX=1;entryY=0.5;entryDx=0;entryDy=0;exitPerimeter=0;" edge="1" parent="1" source="5c5kSIC_IQ6q4t-RuQzD-8" target="5c5kSIC_IQ6q4t-RuQzD-33">
          <mxGeometry width="50" height="50" relative="1" as="geometry">
            <mxPoint x="1260" y="860" as="sourcePoint" />
            <mxPoint x="1510" y="860" as="targetPoint" />
          </mxGeometry>
        </mxCell>
        <mxCell id="5c5kSIC_IQ6q4t-RuQzD-52" value="" style="endArrow=none;html=1;rounded=0;entryX=1;entryY=0;entryDx=0;entryDy=0;exitX=0;exitY=0.5;exitDx=0;exitDy=0;" edge="1" parent="1" source="5c5kSIC_IQ6q4t-RuQzD-33" target="5c5kSIC_IQ6q4t-RuQzD-29">
          <mxGeometry width="50" height="50" relative="1" as="geometry">
            <mxPoint x="1215" y="920" as="sourcePoint" />
            <mxPoint x="1465" y="920" as="targetPoint" />
          </mxGeometry>
        </mxCell>
        <mxCell id="5c5kSIC_IQ6q4t-RuQzD-53" value="" style="endArrow=none;html=1;rounded=0;exitX=1;exitY=0.5;exitDx=0;exitDy=0;entryX=0;entryY=0;entryDx=0;entryDy=0;" edge="1" parent="1" target="5c5kSIC_IQ6q4t-RuQzD-32">
          <mxGeometry width="50" height="50" relative="1" as="geometry">
            <mxPoint x="1200" y="1020" as="sourcePoint" />
            <mxPoint x="1450" y="1020" as="targetPoint" />
          </mxGeometry>
        </mxCell>
        <mxCell id="5c5kSIC_IQ6q4t-RuQzD-54" value="" style="endArrow=none;html=1;rounded=0;exitX=0.5;exitY=1;exitDx=0;exitDy=0;entryX=0.421;entryY=-0.007;entryDx=0;entryDy=0;entryPerimeter=0;" edge="1" parent="1" source="5c5kSIC_IQ6q4t-RuQzD-29" target="5c5kSIC_IQ6q4t-RuQzD-31">
          <mxGeometry width="50" height="50" relative="1" as="geometry">
            <mxPoint x="1170" y="1110" as="sourcePoint" />
            <mxPoint x="1420" y="1110" as="targetPoint" />
          </mxGeometry>
        </mxCell>
        <mxCell id="5c5kSIC_IQ6q4t-RuQzD-55" value="" style="endArrow=none;html=1;rounded=0;entryX=0.5;entryY=0;entryDx=0;entryDy=0;" edge="1" parent="1" target="5c5kSIC_IQ6q4t-RuQzD-30">
          <mxGeometry width="50" height="50" relative="1" as="geometry">
            <mxPoint x="1120" y="1024" as="sourcePoint" />
            <mxPoint x="1320" y="1110" as="targetPoint" />
          </mxGeometry>
        </mxCell>
        <mxCell id="5c5kSIC_IQ6q4t-RuQzD-56" value="" style="endArrow=none;html=1;rounded=0;exitX=0.143;exitY=1.01;exitDx=0;exitDy=0;entryX=0.5;entryY=0;entryDx=0;entryDy=0;exitPerimeter=0;" edge="1" parent="1" source="5c5kSIC_IQ6q4t-RuQzD-26" target="5c5kSIC_IQ6q4t-RuQzD-27">
          <mxGeometry width="50" height="50" relative="1" as="geometry">
            <mxPoint x="800" y="910" as="sourcePoint" />
            <mxPoint x="1050" y="910" as="targetPoint" />
            <Array as="points">
              <mxPoint x="860" y="891" />
            </Array>
          </mxGeometry>
        </mxCell>
        <mxCell id="5c5kSIC_IQ6q4t-RuQzD-58" value="" style="endArrow=none;html=1;rounded=0;exitX=1;exitY=0.5;exitDx=0;exitDy=0;entryX=0;entryY=0.5;entryDx=0;entryDy=0;" edge="1" parent="1" source="5c5kSIC_IQ6q4t-RuQzD-113" target="5c5kSIC_IQ6q4t-RuQzD-8">
          <mxGeometry width="50" height="50" relative="1" as="geometry">
            <mxPoint x="980" y="840" as="sourcePoint" />
            <mxPoint x="1230" y="840" as="targetPoint" />
          </mxGeometry>
        </mxCell>
        <mxCell id="5c5kSIC_IQ6q4t-RuQzD-59" value="" style="endArrow=none;html=1;rounded=0;exitX=0.75;exitY=0;exitDx=0;exitDy=0;entryX=0.5;entryY=1;entryDx=0;entryDy=0;" edge="1" parent="1" source="5c5kSIC_IQ6q4t-RuQzD-1" target="5c5kSIC_IQ6q4t-RuQzD-113">
          <mxGeometry width="50" height="50" relative="1" as="geometry">
            <mxPoint x="710" y="940" as="sourcePoint" />
            <mxPoint x="960" y="940" as="targetPoint" />
          </mxGeometry>
        </mxCell>
        <mxCell id="5c5kSIC_IQ6q4t-RuQzD-60" value="" style="endArrow=none;html=1;rounded=0;exitX=1;exitY=0.5;exitDx=0;exitDy=0;entryX=0.5;entryY=1;entryDx=0;entryDy=0;" edge="1" parent="1" target="5c5kSIC_IQ6q4t-RuQzD-24">
          <mxGeometry width="50" height="50" relative="1" as="geometry">
            <mxPoint x="580" y="1039.0900000000001" as="sourcePoint" />
            <mxPoint x="830" y="1039.0900000000001" as="targetPoint" />
          </mxGeometry>
        </mxCell>
        <mxCell id="5c5kSIC_IQ6q4t-RuQzD-61" value="" style="endArrow=none;html=1;rounded=0;entryX=0.078;entryY=-0.047;entryDx=0;entryDy=0;entryPerimeter=0;exitX=1;exitY=0.5;exitDx=0;exitDy=0;" edge="1" parent="1" source="5c5kSIC_IQ6q4t-RuQzD-113" target="5c5kSIC_IQ6q4t-RuQzD-26">
          <mxGeometry width="50" height="50" relative="1" as="geometry">
            <mxPoint x="600" y="729.0899999999999" as="sourcePoint" />
            <mxPoint x="850" y="729.0899999999999" as="targetPoint" />
          </mxGeometry>
        </mxCell>
        <mxCell id="5c5kSIC_IQ6q4t-RuQzD-62" value="" style="endArrow=none;html=1;rounded=0;entryX=0;entryY=0;entryDx=0;entryDy=0;" edge="1" parent="1" source="5c5kSIC_IQ6q4t-RuQzD-2">
          <mxGeometry width="50" height="50" relative="1" as="geometry">
            <mxPoint x="525.24" y="582.8" as="sourcePoint" />
            <mxPoint x="500" y="670" as="targetPoint" />
            <Array as="points">
              <mxPoint x="500" y="670" />
            </Array>
          </mxGeometry>
        </mxCell>
        <mxCell id="5c5kSIC_IQ6q4t-RuQzD-63" value="" style="endArrow=none;html=1;rounded=0;exitX=0.5;exitY=1;exitDx=0;exitDy=0;entryX=0.577;entryY=0.002;entryDx=0;entryDy=0;entryPerimeter=0;" edge="1" parent="1" source="5c5kSIC_IQ6q4t-RuQzD-4" target="5c5kSIC_IQ6q4t-RuQzD-3">
          <mxGeometry width="50" height="50" relative="1" as="geometry">
            <mxPoint x="530" y="640" as="sourcePoint" />
            <mxPoint x="540" y="660" as="targetPoint" />
          </mxGeometry>
        </mxCell>
        <mxCell id="5c5kSIC_IQ6q4t-RuQzD-64" value="" style="endArrow=none;html=1;rounded=0;exitX=1;exitY=0.5;exitDx=0;exitDy=0;" edge="1" parent="1" source="5c5kSIC_IQ6q4t-RuQzD-6">
          <mxGeometry width="50" height="50" relative="1" as="geometry">
            <mxPoint x="430" y="710" as="sourcePoint" />
            <mxPoint x="480" y="710" as="targetPoint" />
          </mxGeometry>
        </mxCell>
        <mxCell id="5c5kSIC_IQ6q4t-RuQzD-65" value="" style="endArrow=none;html=1;rounded=0;entryX=0;entryY=0.75;entryDx=0;entryDy=0;" edge="1" parent="1" source="5c5kSIC_IQ6q4t-RuQzD-5" target="5c5kSIC_IQ6q4t-RuQzD-3">
          <mxGeometry width="50" height="50" relative="1" as="geometry">
            <mxPoint x="470" y="740" as="sourcePoint" />
            <mxPoint x="720" y="740" as="targetPoint" />
          </mxGeometry>
        </mxCell>
        <mxCell id="5c5kSIC_IQ6q4t-RuQzD-66" value="" style="endArrow=none;html=1;rounded=0;exitX=1;exitY=0;exitDx=0;exitDy=0;entryX=0.5;entryY=1;entryDx=0;entryDy=0;" edge="1" parent="1" source="5c5kSIC_IQ6q4t-RuQzD-16" target="5c5kSIC_IQ6q4t-RuQzD-3">
          <mxGeometry width="50" height="50" relative="1" as="geometry">
            <mxPoint x="530" y="799" as="sourcePoint" />
            <mxPoint x="780" y="799" as="targetPoint" />
            <Array as="points">
              <mxPoint x="490" y="730" />
            </Array>
          </mxGeometry>
        </mxCell>
        <mxCell id="5c5kSIC_IQ6q4t-RuQzD-67" value="" style="endArrow=none;html=1;rounded=0;exitX=0.952;exitY=1.02;exitDx=0;exitDy=0;entryX=0.5;entryY=0;entryDx=0;entryDy=0;exitPerimeter=0;" edge="1" parent="1" source="5c5kSIC_IQ6q4t-RuQzD-3" target="5c5kSIC_IQ6q4t-RuQzD-24">
          <mxGeometry width="50" height="50" relative="1" as="geometry">
            <mxPoint x="620" y="780" as="sourcePoint" />
            <mxPoint x="870" y="780" as="targetPoint" />
          </mxGeometry>
        </mxCell>
        <mxCell id="5c5kSIC_IQ6q4t-RuQzD-68" value="" style="endArrow=none;html=1;rounded=0;exitX=1;exitY=0.5;exitDx=0;exitDy=0;entryX=0.5;entryY=1;entryDx=0;entryDy=0;" edge="1" parent="1" target="5c5kSIC_IQ6q4t-RuQzD-15">
          <mxGeometry width="50" height="50" relative="1" as="geometry">
            <mxPoint x="595" y="670" as="sourcePoint" />
            <mxPoint x="845" y="670" as="targetPoint" />
          </mxGeometry>
        </mxCell>
        <mxCell id="5c5kSIC_IQ6q4t-RuQzD-69" value="" style="endArrow=none;html=1;rounded=0;exitX=0.457;exitY=1.018;exitDx=0;exitDy=0;entryX=0.5;entryY=0;entryDx=0;entryDy=0;exitPerimeter=0;" edge="1" parent="1" source="5c5kSIC_IQ6q4t-RuQzD-10" target="5c5kSIC_IQ6q4t-RuQzD-15">
          <mxGeometry width="50" height="50" relative="1" as="geometry">
            <mxPoint x="680" y="440" as="sourcePoint" />
            <mxPoint x="930" y="440" as="targetPoint" />
          </mxGeometry>
        </mxCell>
        <mxCell id="5c5kSIC_IQ6q4t-RuQzD-70" value="" style="endArrow=none;html=1;rounded=0;exitX=0.968;exitY=0.622;exitDx=0;exitDy=0;entryX=0;entryY=0.25;entryDx=0;entryDy=0;exitPerimeter=0;" edge="1" parent="1" source="5c5kSIC_IQ6q4t-RuQzD-11" target="5c5kSIC_IQ6q4t-RuQzD-10">
          <mxGeometry width="50" height="50" relative="1" as="geometry">
            <mxPoint x="600" y="370" as="sourcePoint" />
            <mxPoint x="850" y="370" as="targetPoint" />
          </mxGeometry>
        </mxCell>
        <mxCell id="5c5kSIC_IQ6q4t-RuQzD-71" value="" style="endArrow=none;html=1;rounded=0;exitX=0.56;exitY=1.048;exitDx=0;exitDy=0;entryX=0.111;entryY=-0.04;entryDx=0;entryDy=0;entryPerimeter=0;exitPerimeter=0;" edge="1" parent="1" source="5c5kSIC_IQ6q4t-RuQzD-12" target="5c5kSIC_IQ6q4t-RuQzD-10">
          <mxGeometry width="50" height="50" relative="1" as="geometry">
            <mxPoint x="550" y="280" as="sourcePoint" />
            <mxPoint x="800" y="280" as="targetPoint" />
          </mxGeometry>
        </mxCell>
        <mxCell id="5c5kSIC_IQ6q4t-RuQzD-72" value="" style="endArrow=none;html=1;rounded=0;exitX=0.5;exitY=1;exitDx=0;exitDy=0;entryX=0.364;entryY=-0.026;entryDx=0;entryDy=0;entryPerimeter=0;" edge="1" parent="1" source="5c5kSIC_IQ6q4t-RuQzD-18" target="5c5kSIC_IQ6q4t-RuQzD-10">
          <mxGeometry width="50" height="50" relative="1" as="geometry">
            <mxPoint x="655" y="260" as="sourcePoint" />
            <mxPoint x="700" y="370" as="targetPoint" />
          </mxGeometry>
        </mxCell>
        <mxCell id="5c5kSIC_IQ6q4t-RuQzD-73" value="" style="endArrow=none;html=1;rounded=0;entryX=0.427;entryY=1.028;entryDx=0;entryDy=0;exitX=0.75;exitY=0;exitDx=0;exitDy=0;entryPerimeter=0;" edge="1" parent="1" source="5c5kSIC_IQ6q4t-RuQzD-10" target="5c5kSIC_IQ6q4t-RuQzD-14">
          <mxGeometry width="50" height="50" relative="1" as="geometry">
            <mxPoint x="750" y="370" as="sourcePoint" />
            <mxPoint x="1010" y="330" as="targetPoint" />
          </mxGeometry>
        </mxCell>
        <mxCell id="5c5kSIC_IQ6q4t-RuQzD-74" value="" style="endArrow=none;html=1;rounded=0;entryX=0;entryY=0.5;entryDx=0;entryDy=0;" edge="1" parent="1" target="5c5kSIC_IQ6q4t-RuQzD-25">
          <mxGeometry width="50" height="50" relative="1" as="geometry">
            <mxPoint x="110" y="150" as="sourcePoint" />
            <mxPoint x="240" y="149.47" as="targetPoint" />
          </mxGeometry>
        </mxCell>
        <mxCell id="5c5kSIC_IQ6q4t-RuQzD-75" value="" style="endArrow=none;html=1;rounded=0;" edge="1" parent="1">
          <mxGeometry width="50" height="50" relative="1" as="geometry">
            <mxPoint x="90" y="1080" as="sourcePoint" />
            <mxPoint x="110" y="150" as="targetPoint" />
          </mxGeometry>
        </mxCell>
        <mxCell id="5c5kSIC_IQ6q4t-RuQzD-76" value="" style="endArrow=none;html=1;rounded=0;" edge="1" parent="1">
          <mxGeometry width="50" height="50" relative="1" as="geometry">
            <mxPoint x="90" y="1070" as="sourcePoint" />
            <mxPoint x="90" y="1330" as="targetPoint" />
          </mxGeometry>
        </mxCell>
        <mxCell id="5c5kSIC_IQ6q4t-RuQzD-77" value="" style="endArrow=none;html=1;rounded=0;" edge="1" parent="1">
          <mxGeometry width="50" height="50" relative="1" as="geometry">
            <mxPoint x="340" y="148.89" as="sourcePoint" />
            <mxPoint x="1580" y="149" as="targetPoint" />
          </mxGeometry>
        </mxCell>
        <mxCell id="5c5kSIC_IQ6q4t-RuQzD-78" value="" style="endArrow=none;html=1;rounded=0;exitX=0.5;exitY=0;exitDx=0;exitDy=0;" edge="1" parent="1" source="5c5kSIC_IQ6q4t-RuQzD-38" target="5c5kSIC_IQ6q4t-RuQzD-34">
          <mxGeometry width="50" height="50" relative="1" as="geometry">
            <mxPoint x="1610" y="288.57" as="sourcePoint" />
            <mxPoint x="1720" y="288.57" as="targetPoint" />
          </mxGeometry>
        </mxCell>
        <mxCell id="5c5kSIC_IQ6q4t-RuQzD-79" value="" style="endArrow=none;html=1;rounded=0;exitX=0.5;exitY=0;exitDx=0;exitDy=0;" edge="1" parent="1" source="5c5kSIC_IQ6q4t-RuQzD-8">
          <mxGeometry width="50" height="50" relative="1" as="geometry">
            <mxPoint x="1340" y="540" as="sourcePoint" />
            <mxPoint x="1410" y="530" as="targetPoint" />
          </mxGeometry>
        </mxCell>
        <mxCell id="5c5kSIC_IQ6q4t-RuQzD-80" value="" style="endArrow=none;html=1;rounded=0;entryX=0;entryY=0.5;entryDx=0;entryDy=0;" edge="1" parent="1">
          <mxGeometry width="50" height="50" relative="1" as="geometry">
            <mxPoint x="1410" y="530" as="sourcePoint" />
            <mxPoint x="1570" y="530" as="targetPoint" />
          </mxGeometry>
        </mxCell>
        <mxCell id="5c5kSIC_IQ6q4t-RuQzD-81" value="" style="endArrow=none;html=1;rounded=0;entryX=1;entryY=0.5;entryDx=0;entryDy=0;" edge="1" parent="1" target="5c5kSIC_IQ6q4t-RuQzD-38">
          <mxGeometry width="50" height="50" relative="1" as="geometry">
            <mxPoint x="1570" y="530" as="sourcePoint" />
            <mxPoint x="1860" y="310" as="targetPoint" />
          </mxGeometry>
        </mxCell>
        <mxCell id="5c5kSIC_IQ6q4t-RuQzD-82" value="" style="endArrow=none;html=1;rounded=0;entryX=0;entryY=0.75;entryDx=0;entryDy=0;" edge="1" parent="1" target="5c5kSIC_IQ6q4t-RuQzD-19">
          <mxGeometry width="50" height="50" relative="1" as="geometry">
            <mxPoint x="970" y="510" as="sourcePoint" />
            <mxPoint x="1130" y="520" as="targetPoint" />
          </mxGeometry>
        </mxCell>
        <mxCell id="5c5kSIC_IQ6q4t-RuQzD-83" value="" style="endArrow=none;html=1;rounded=0;" edge="1" parent="1">
          <mxGeometry width="50" height="50" relative="1" as="geometry">
            <mxPoint x="970" y="510" as="sourcePoint" />
            <mxPoint x="970" y="240" as="targetPoint" />
          </mxGeometry>
        </mxCell>
        <mxCell id="5c5kSIC_IQ6q4t-RuQzD-84" value="" style="endArrow=none;html=1;rounded=0;entryX=0;entryY=1;entryDx=0;entryDy=0;" edge="1" parent="1" target="5c5kSIC_IQ6q4t-RuQzD-38">
          <mxGeometry width="50" height="50" relative="1" as="geometry">
            <mxPoint x="970" y="240" as="sourcePoint" />
            <mxPoint x="1100" y="-10" as="targetPoint" />
          </mxGeometry>
        </mxCell>
        <mxCell id="5c5kSIC_IQ6q4t-RuQzD-85" value="" style="endArrow=none;html=1;rounded=0;entryX=0;entryY=0.5;entryDx=0;entryDy=0;" edge="1" parent="1" target="5c5kSIC_IQ6q4t-RuQzD-38">
          <mxGeometry width="50" height="50" relative="1" as="geometry">
            <mxPoint x="1580" y="150" as="sourcePoint" />
            <mxPoint x="1630" y="20" as="targetPoint" />
          </mxGeometry>
        </mxCell>
        <mxCell id="5c5kSIC_IQ6q4t-RuQzD-86" value="" style="endArrow=none;html=1;rounded=0;exitX=0.5;exitY=1;exitDx=0;exitDy=0;" edge="1" parent="1" source="5c5kSIC_IQ6q4t-RuQzD-25">
          <mxGeometry width="50" height="50" relative="1" as="geometry">
            <mxPoint x="400" y="420" as="sourcePoint" />
            <mxPoint x="310" y="410" as="targetPoint" />
          </mxGeometry>
        </mxCell>
        <mxCell id="5c5kSIC_IQ6q4t-RuQzD-87" value="" style="endArrow=none;html=1;rounded=0;entryX=0.003;entryY=0.644;entryDx=0;entryDy=0;entryPerimeter=0;" edge="1" parent="1" target="5c5kSIC_IQ6q4t-RuQzD-10">
          <mxGeometry width="50" height="50" relative="1" as="geometry">
            <mxPoint x="580" y="420" as="sourcePoint" />
            <mxPoint x="640" y="-10" as="targetPoint" />
          </mxGeometry>
        </mxCell>
        <mxCell id="5c5kSIC_IQ6q4t-RuQzD-88" value="&lt;span style=&quot;font-size: 16px;&quot;&gt;course_code&lt;/span&gt;" style="ellipse;whiteSpace=wrap;html=1;" vertex="1" parent="1">
          <mxGeometry x="1420" y="430" width="120" height="80" as="geometry" />
        </mxCell>
        <mxCell id="5c5kSIC_IQ6q4t-RuQzD-89" value="" style="endArrow=none;html=1;rounded=0;exitX=1;exitY=0.25;exitDx=0;exitDy=0;entryX=0;entryY=0.5;entryDx=0;entryDy=0;" edge="1" parent="1" target="5c5kSIC_IQ6q4t-RuQzD-88">
          <mxGeometry width="50" height="50" relative="1" as="geometry">
            <mxPoint x="1330" y="510" as="sourcePoint" />
            <mxPoint x="1428" y="433" as="targetPoint" />
          </mxGeometry>
        </mxCell>
        <mxCell id="5c5kSIC_IQ6q4t-RuQzD-90" value="" style="endArrow=none;html=1;rounded=0;" edge="1" parent="1">
          <mxGeometry width="50" height="50" relative="1" as="geometry">
            <mxPoint x="1481" y="630" as="sourcePoint" />
            <mxPoint x="1489" y="630" as="targetPoint" />
          </mxGeometry>
        </mxCell>
        <mxCell id="5c5kSIC_IQ6q4t-RuQzD-91" value="&lt;span style=&quot;font-size: 16px;&quot;&gt;batch&lt;/span&gt;" style="ellipse;whiteSpace=wrap;html=1;" vertex="1" parent="1">
          <mxGeometry x="1020" y="290" width="120" height="80" as="geometry" />
        </mxCell>
        <mxCell id="5c5kSIC_IQ6q4t-RuQzD-92" value="" style="endArrow=none;html=1;rounded=0;exitX=1;exitY=0.5;exitDx=0;exitDy=0;entryX=0.031;entryY=0.011;entryDx=0;entryDy=0;entryPerimeter=0;" edge="1" parent="1" target="5c5kSIC_IQ6q4t-RuQzD-19">
          <mxGeometry width="50" height="50" relative="1" as="geometry">
            <mxPoint x="1120" y="358.57" as="sourcePoint" />
            <mxPoint x="1220" y="410" as="targetPoint" />
          </mxGeometry>
        </mxCell>
        <mxCell id="5c5kSIC_IQ6q4t-RuQzD-93" value="&lt;span style=&quot;font-size: 16px;&quot;&gt;id&lt;/span&gt;" style="ellipse;whiteSpace=wrap;html=1;" vertex="1" parent="1">
          <mxGeometry x="715" y="980" width="120" height="80" as="geometry" />
        </mxCell>
        <mxCell id="5c5kSIC_IQ6q4t-RuQzD-94" value="" style="endArrow=none;html=1;rounded=0;entryX=0.5;entryY=0;entryDx=0;entryDy=0;exitX=0;exitY=1;exitDx=0;exitDy=0;" edge="1" parent="1" source="5c5kSIC_IQ6q4t-RuQzD-26" target="5c5kSIC_IQ6q4t-RuQzD-93">
          <mxGeometry width="50" height="50" relative="1" as="geometry">
            <mxPoint x="770" y="900" as="sourcePoint" />
            <mxPoint x="880" y="1230" as="targetPoint" />
          </mxGeometry>
        </mxCell>
        <mxCell id="5c5kSIC_IQ6q4t-RuQzD-95" value="" style="endArrow=none;html=1;rounded=0;" edge="1" parent="1">
          <mxGeometry width="50" height="50" relative="1" as="geometry">
            <mxPoint x="786" y="1030" as="sourcePoint" />
            <mxPoint x="764" y="1030" as="targetPoint" />
          </mxGeometry>
        </mxCell>
        <mxCell id="5c5kSIC_IQ6q4t-RuQzD-96" value="&lt;span style=&quot;font-size: 16px;&quot;&gt;id&lt;/span&gt;" style="ellipse;whiteSpace=wrap;html=1;" vertex="1" parent="1">
          <mxGeometry x="390" y="300" width="120" height="80" as="geometry" />
        </mxCell>
        <mxCell id="5c5kSIC_IQ6q4t-RuQzD-97" value="" style="endArrow=none;html=1;rounded=0;" edge="1" parent="1">
          <mxGeometry width="50" height="50" relative="1" as="geometry">
            <mxPoint x="462" y="350" as="sourcePoint" />
            <mxPoint x="440" y="350" as="targetPoint" />
          </mxGeometry>
        </mxCell>
        <mxCell id="5c5kSIC_IQ6q4t-RuQzD-98" value="&lt;span style=&quot;font-size: 16px;&quot;&gt;id&lt;/span&gt;" style="ellipse;whiteSpace=wrap;html=1;" vertex="1" parent="1">
          <mxGeometry x="500" y="820" width="120" height="70" as="geometry" />
        </mxCell>
        <mxCell id="5c5kSIC_IQ6q4t-RuQzD-99" value="" style="endArrow=none;html=1;rounded=0;exitX=0.5;exitY=0;exitDx=0;exitDy=0;entryX=0.631;entryY=1.02;entryDx=0;entryDy=0;entryPerimeter=0;" edge="1" parent="1" source="5c5kSIC_IQ6q4t-RuQzD-98" target="5c5kSIC_IQ6q4t-RuQzD-3">
          <mxGeometry width="50" height="50" relative="1" as="geometry">
            <mxPoint x="460" y="1020" as="sourcePoint" />
            <mxPoint x="625" y="900" as="targetPoint" />
          </mxGeometry>
        </mxCell>
        <mxCell id="5c5kSIC_IQ6q4t-RuQzD-100" value="" style="endArrow=none;html=1;rounded=0;" edge="1" parent="1">
          <mxGeometry width="50" height="50" relative="1" as="geometry">
            <mxPoint x="571" y="870" as="sourcePoint" />
            <mxPoint x="549" y="870" as="targetPoint" />
            <Array as="points">
              <mxPoint x="560" y="870" />
            </Array>
          </mxGeometry>
        </mxCell>
        <mxCell id="5c5kSIC_IQ6q4t-RuQzD-101" value="&lt;span style=&quot;font-size: 16px;&quot;&gt;id&lt;/span&gt;" style="ellipse;whiteSpace=wrap;html=1;" vertex="1" parent="1">
          <mxGeometry x="1300" y="930" width="120" height="80" as="geometry" />
        </mxCell>
        <mxCell id="5c5kSIC_IQ6q4t-RuQzD-102" value="" style="endArrow=none;html=1;rounded=0;" edge="1" parent="1">
          <mxGeometry width="50" height="50" relative="1" as="geometry">
            <mxPoint x="1372" y="980" as="sourcePoint" />
            <mxPoint x="1350" y="980" as="targetPoint" />
          </mxGeometry>
        </mxCell>
        <mxCell id="5c5kSIC_IQ6q4t-RuQzD-103" value="" style="endArrow=none;html=1;rounded=0;entryX=0.661;entryY=0.992;entryDx=0;entryDy=0;entryPerimeter=0;exitX=0.413;exitY=-0.022;exitDx=0;exitDy=0;exitPerimeter=0;" edge="1" parent="1" source="5c5kSIC_IQ6q4t-RuQzD-101" target="5c5kSIC_IQ6q4t-RuQzD-8">
          <mxGeometry width="50" height="50" relative="1" as="geometry">
            <mxPoint x="1352" y="870" as="sourcePoint" />
            <mxPoint x="1330" y="870" as="targetPoint" />
          </mxGeometry>
        </mxCell>
        <mxCell id="5c5kSIC_IQ6q4t-RuQzD-104" value="&lt;span style=&quot;font-size: 16px;&quot;&gt;id&lt;/span&gt;" style="ellipse;whiteSpace=wrap;html=1;" vertex="1" parent="1">
          <mxGeometry x="1000" y="1170" width="120" height="80" as="geometry" />
        </mxCell>
        <mxCell id="5c5kSIC_IQ6q4t-RuQzD-105" value="" style="endArrow=none;html=1;rounded=0;exitX=0;exitY=1;exitDx=0;exitDy=0;entryX=0.5;entryY=0;entryDx=0;entryDy=0;" edge="1" parent="1" source="5c5kSIC_IQ6q4t-RuQzD-29" target="5c5kSIC_IQ6q4t-RuQzD-104">
          <mxGeometry width="50" height="50" relative="1" as="geometry">
            <mxPoint x="1040" y="1100" as="sourcePoint" />
            <mxPoint x="1261" y="1239" as="targetPoint" />
          </mxGeometry>
        </mxCell>
        <mxCell id="5c5kSIC_IQ6q4t-RuQzD-106" value="" style="endArrow=none;html=1;rounded=0;" edge="1" parent="1">
          <mxGeometry width="50" height="50" relative="1" as="geometry">
            <mxPoint x="1070" y="1220" as="sourcePoint" />
            <mxPoint x="1048" y="1220" as="targetPoint" />
          </mxGeometry>
        </mxCell>
        <mxCell id="5c5kSIC_IQ6q4t-RuQzD-107" value="&lt;span style=&quot;font-size: 16px;&quot;&gt;id&lt;/span&gt;" style="ellipse;whiteSpace=wrap;html=1;" vertex="1" parent="1">
          <mxGeometry x="1410" y="580" width="120" height="80" as="geometry" />
        </mxCell>
        <mxCell id="5c5kSIC_IQ6q4t-RuQzD-108" value="" style="endArrow=none;html=1;rounded=0;exitX=0;exitY=0.5;exitDx=0;exitDy=0;" edge="1" parent="1" source="5c5kSIC_IQ6q4t-RuQzD-34" target="5c5kSIC_IQ6q4t-RuQzD-107">
          <mxGeometry width="50" height="50" relative="1" as="geometry">
            <mxPoint x="1540" y="580" as="sourcePoint" />
            <mxPoint x="1564" y="680" as="targetPoint" />
          </mxGeometry>
        </mxCell>
        <mxCell id="5c5kSIC_IQ6q4t-RuQzD-109" value="1" style="text;html=1;align=center;verticalAlign=middle;whiteSpace=wrap;rounded=0;" vertex="1" parent="1">
          <mxGeometry x="590" y="670" width="60" height="30" as="geometry" />
        </mxCell>
        <mxCell id="5c5kSIC_IQ6q4t-RuQzD-110" value="M" style="text;html=1;align=center;verticalAlign=middle;whiteSpace=wrap;rounded=0;" vertex="1" parent="1">
          <mxGeometry x="1180" y="520" width="60" height="30" as="geometry" />
        </mxCell>
        <mxCell id="5c5kSIC_IQ6q4t-RuQzD-111" value="1" style="text;html=1;align=center;verticalAlign=middle;whiteSpace=wrap;rounded=0;" vertex="1" parent="1">
          <mxGeometry x="590" y="695" width="60" height="30" as="geometry" />
        </mxCell>
        <mxCell id="5c5kSIC_IQ6q4t-RuQzD-112" value="1" style="text;html=1;align=center;verticalAlign=middle;whiteSpace=wrap;rounded=0;" vertex="1" parent="1">
          <mxGeometry x="770" y="795" width="60" height="30" as="geometry" />
        </mxCell>
        <mxCell id="5c5kSIC_IQ6q4t-RuQzD-113" value="&lt;span style=&quot;font-size: 14px;&quot;&gt;Logins&lt;/span&gt;" style="rhombus;whiteSpace=wrap;html=1;" vertex="1" parent="1">
          <mxGeometry x="690" y="720" width="80" height="80" as="geometry" />
        </mxCell>
        <mxCell id="5c5kSIC_IQ6q4t-RuQzD-114" value="" style="endArrow=none;html=1;rounded=0;exitX=1;exitY=0.75;exitDx=0;exitDy=0;entryX=0;entryY=0.5;entryDx=0;entryDy=0;" edge="1" parent="1" source="5c5kSIC_IQ6q4t-RuQzD-3" target="5c5kSIC_IQ6q4t-RuQzD-113">
          <mxGeometry width="50" height="50" relative="1" as="geometry">
            <mxPoint x="700" y="800" as="sourcePoint" />
            <mxPoint x="750" y="750" as="targetPoint" />
          </mxGeometry>
        </mxCell>
        <mxCell id="5c5kSIC_IQ6q4t-RuQzD-115" value="1" style="text;html=1;align=center;verticalAlign=middle;whiteSpace=wrap;rounded=0;" vertex="1" parent="1">
          <mxGeometry x="610" y="1010" width="60" height="30" as="geometry" />
        </mxCell>
        <mxCell id="5c5kSIC_IQ6q4t-RuQzD-116" value="1" style="text;html=1;align=center;verticalAlign=middle;whiteSpace=wrap;rounded=0;" vertex="1" parent="1">
          <mxGeometry x="1170" y="780" width="60" height="30" as="geometry" />
        </mxCell>
        <mxCell id="5c5kSIC_IQ6q4t-RuQzD-117" value="1" style="text;html=1;align=center;verticalAlign=middle;whiteSpace=wrap;rounded=0;" vertex="1" parent="1">
          <mxGeometry x="530" y="1010" width="60" height="30" as="geometry" />
        </mxCell>
        <mxCell id="5c5kSIC_IQ6q4t-RuQzD-118" value="" style="endArrow=none;html=1;rounded=0;exitX=0.94;exitY=0.682;exitDx=0;exitDy=0;entryX=0;entryY=0.25;entryDx=0;entryDy=0;exitPerimeter=0;" edge="1" parent="1" source="5c5kSIC_IQ6q4t-RuQzD-96" target="5c5kSIC_IQ6q4t-RuQzD-10">
          <mxGeometry width="50" height="50" relative="1" as="geometry">
            <mxPoint x="570" y="330" as="sourcePoint" />
            <mxPoint x="629" y="445" as="targetPoint" />
          </mxGeometry>
        </mxCell>
        <mxCell id="5c5kSIC_IQ6q4t-RuQzD-119" value="" style="endArrow=none;html=1;rounded=0;" edge="1" parent="1">
          <mxGeometry width="50" height="50" relative="1" as="geometry">
            <mxPoint x="310" y="410" as="sourcePoint" />
            <mxPoint x="580" y="420" as="targetPoint" />
          </mxGeometry>
        </mxCell>
        <mxCell id="5c5kSIC_IQ6q4t-RuQzD-120" value="M" style="text;html=1;align=center;verticalAlign=middle;whiteSpace=wrap;rounded=0;" vertex="1" parent="1">
          <mxGeometry x="1250" y="740" width="60" height="30" as="geometry" />
        </mxCell>
        <mxCell id="5c5kSIC_IQ6q4t-RuQzD-121" value="M" style="text;html=1;align=center;verticalAlign=middle;whiteSpace=wrap;rounded=0;" vertex="1" parent="1">
          <mxGeometry x="1630" y="530" width="60" height="30" as="geometry" />
        </mxCell>
        <mxCell id="5c5kSIC_IQ6q4t-RuQzD-122" value="" style="endArrow=none;html=1;rounded=0;exitX=0.5;exitY=1;exitDx=0;exitDy=0;entryX=0.5;entryY=0;entryDx=0;entryDy=0;" edge="1" parent="1" source="5c5kSIC_IQ6q4t-RuQzD-1" target="5c5kSIC_IQ6q4t-RuQzD-124">
          <mxGeometry width="50" height="50" relative="1" as="geometry">
            <mxPoint x="610" y="1110" as="sourcePoint" />
            <mxPoint x="610" y="1250" as="targetPoint" />
          </mxGeometry>
        </mxCell>
        <mxCell id="5c5kSIC_IQ6q4t-RuQzD-123" value="" style="endArrow=none;html=1;rounded=0;entryX=0;entryY=0.5;entryDx=0;entryDy=0;exitX=1;exitY=0.5;exitDx=0;exitDy=0;" edge="1" parent="1" source="5c5kSIC_IQ6q4t-RuQzD-124" target="5c5kSIC_IQ6q4t-RuQzD-29">
          <mxGeometry width="50" height="50" relative="1" as="geometry">
            <mxPoint x="670" y="1275" as="sourcePoint" />
            <mxPoint x="1140" y="1030" as="targetPoint" />
          </mxGeometry>
        </mxCell>
        <mxCell id="5c5kSIC_IQ6q4t-RuQzD-124" value="&lt;font style=&quot;font-size: 14px;&quot;&gt;Manages&lt;/font&gt;" style="rhombus;whiteSpace=wrap;html=1;" vertex="1" parent="1">
          <mxGeometry x="575" y="1300" width="80" height="80" as="geometry" />
        </mxCell>
        <mxCell id="5c5kSIC_IQ6q4t-RuQzD-125" value="M" style="text;html=1;align=center;verticalAlign=middle;whiteSpace=wrap;rounded=0;" vertex="1" parent="1">
          <mxGeometry x="555" y="740" width="60" height="30" as="geometry" />
        </mxCell>
        <mxCell id="5c5kSIC_IQ6q4t-RuQzD-126" value="M" style="text;html=1;align=center;verticalAlign=middle;whiteSpace=wrap;rounded=0;rotation=-41;" vertex="1" parent="1">
          <mxGeometry x="1010" y="980" width="60" height="30" as="geometry" />
        </mxCell>
        <mxCell id="5c5kSIC_IQ6q4t-RuQzD-127" value="" style="endArrow=none;html=1;rounded=0;" edge="1" parent="1">
          <mxGeometry width="50" height="50" relative="1" as="geometry">
            <mxPoint x="1481" y="630" as="sourcePoint" />
            <mxPoint x="1459" y="630" as="targetPoint" />
          </mxGeometry>
        </mxCell>
        <mxCell id="5c5kSIC_IQ6q4t-RuQzD-128" value="" style="endArrow=none;html=1;rounded=0;" edge="1" parent="1">
          <mxGeometry width="50" height="50" relative="1" as="geometry">
            <mxPoint x="1061" y="450" as="sourcePoint" />
            <mxPoint x="1039" y="450" as="targetPoint" />
          </mxGeometry>
        </mxCell>
        <mxCell id="5c5kSIC_IQ6q4t-RuQzD-129" value="M" style="text;html=1;align=center;verticalAlign=middle;whiteSpace=wrap;rounded=0;" vertex="1" parent="1">
          <mxGeometry x="580" y="390" width="60" height="30" as="geometry" />
        </mxCell>
        <mxCell id="5c5kSIC_IQ6q4t-RuQzD-130" value="&lt;span style=&quot;font-size: 19px;&quot;&gt;reg&lt;/span&gt;" style="rounded=0;whiteSpace=wrap;html=1;" vertex="1" parent="1">
          <mxGeometry x="310" y="1030" width="120" height="60" as="geometry" />
        </mxCell>
        <mxCell id="f2Kt3mZNnF3RPxqmG0qW-2" value="&lt;span style=&quot;font-size: 16px;&quot;&gt;id&lt;/span&gt;" style="ellipse;whiteSpace=wrap;html=1;" vertex="1" parent="1">
          <mxGeometry x="140" y="990" width="120" height="80" as="geometry" />
        </mxCell>
        <mxCell id="f2Kt3mZNnF3RPxqmG0qW-3" value="" style="endArrow=none;html=1;rounded=0;exitX=1;exitY=0.5;exitDx=0;exitDy=0;entryX=-0.023;entryY=0.381;entryDx=0;entryDy=0;entryPerimeter=0;" edge="1" parent="1" source="f2Kt3mZNnF3RPxqmG0qW-2" target="5c5kSIC_IQ6q4t-RuQzD-130">
          <mxGeometry width="50" height="50" relative="1" as="geometry">
            <mxPoint x="270" y="1012" as="sourcePoint" />
            <mxPoint x="368" y="960" as="targetPoint" />
          </mxGeometry>
        </mxCell>
        <mxCell id="f2Kt3mZNnF3RPxqmG0qW-4" value="&lt;span style=&quot;font-size: 16px;&quot;&gt;rollno&lt;/span&gt;" style="ellipse;whiteSpace=wrap;html=1;" vertex="1" parent="1">
          <mxGeometry x="130" y="1110" width="120" height="80" as="geometry" />
        </mxCell>
        <mxCell id="f2Kt3mZNnF3RPxqmG0qW-5" value="" style="endArrow=none;html=1;rounded=0;exitX=0.984;exitY=0.418;exitDx=0;exitDy=0;entryX=-0.002;entryY=0.633;entryDx=0;entryDy=0;exitPerimeter=0;entryPerimeter=0;" edge="1" parent="1" source="f2Kt3mZNnF3RPxqmG0qW-4" target="5c5kSIC_IQ6q4t-RuQzD-130">
          <mxGeometry width="50" height="50" relative="1" as="geometry">
            <mxPoint x="320" y="1200" as="sourcePoint" />
            <mxPoint x="420" y="1240" as="targetPoint" />
          </mxGeometry>
        </mxCell>
        <mxCell id="f2Kt3mZNnF3RPxqmG0qW-6" value="&lt;span style=&quot;font-size: 16px;&quot;&gt;email&lt;/span&gt;" style="ellipse;whiteSpace=wrap;html=1;" vertex="1" parent="1">
          <mxGeometry x="270" y="1170" width="120" height="80" as="geometry" />
        </mxCell>
        <mxCell id="f2Kt3mZNnF3RPxqmG0qW-7" value="" style="endArrow=none;html=1;rounded=0;exitX=0.569;exitY=0.036;exitDx=0;exitDy=0;entryX=0.5;entryY=1;entryDx=0;entryDy=0;exitPerimeter=0;" edge="1" parent="1" source="f2Kt3mZNnF3RPxqmG0qW-6" target="5c5kSIC_IQ6q4t-RuQzD-130">
          <mxGeometry width="50" height="50" relative="1" as="geometry">
            <mxPoint x="300" y="1230" as="sourcePoint" />
            <mxPoint x="362" y="1265" as="targetPoint" />
          </mxGeometry>
        </mxCell>
        <mxCell id="f2Kt3mZNnF3RPxqmG0qW-8" value="&lt;span style=&quot;font-size: 16px;&quot;&gt;password&lt;/span&gt;" style="ellipse;whiteSpace=wrap;html=1;" vertex="1" parent="1">
          <mxGeometry x="430" y="1150" width="120" height="80" as="geometry" />
        </mxCell>
        <mxCell id="f2Kt3mZNnF3RPxqmG0qW-11" value="" style="endArrow=none;html=1;rounded=0;exitX=0.5;exitY=0;exitDx=0;exitDy=0;entryX=1;entryY=0.5;entryDx=0;entryDy=0;" edge="1" parent="1" source="f2Kt3mZNnF3RPxqmG0qW-8" target="5c5kSIC_IQ6q4t-RuQzD-130">
          <mxGeometry width="50" height="50" relative="1" as="geometry">
            <mxPoint x="409" y="1150" as="sourcePoint" />
            <mxPoint x="441" y="1067" as="targetPoint" />
          </mxGeometry>
        </mxCell>
        <mxCell id="f2Kt3mZNnF3RPxqmG0qW-12" value="" style="endArrow=none;html=1;rounded=0;fontSize=12;startSize=8;endSize=8;curved=1;entryX=0;entryY=0.5;entryDx=0;entryDy=0;" edge="1" parent="1" target="5c5kSIC_IQ6q4t-RuQzD-124">
          <mxGeometry width="50" height="50" relative="1" as="geometry">
            <mxPoint x="90" y="1330" as="sourcePoint" />
            <mxPoint x="590" y="1160" as="targetPoint" />
          </mxGeometry>
        </mxCell>
        <mxCell id="f2Kt3mZNnF3RPxqmG0qW-14" value="" style="endArrow=none;html=1;rounded=0;" edge="1" parent="1">
          <mxGeometry width="50" height="50" relative="1" as="geometry">
            <mxPoint x="211" y="1040" as="sourcePoint" />
            <mxPoint x="189" y="1040" as="targetPoint" />
            <Array as="points">
              <mxPoint x="200" y="1040" />
            </Array>
          </mxGeometry>
        </mxCell>
        <mxCell id="f2Kt3mZNnF3RPxqmG0qW-15" value="" style="endArrow=none;html=1;rounded=0;entryX=0.443;entryY=-0.03;entryDx=0;entryDy=0;entryPerimeter=0;" edge="1" parent="1">
          <mxGeometry width="50" height="50" relative="1" as="geometry">
            <mxPoint x="501.84" y="730" as="sourcePoint" />
            <mxPoint x="370.00000000000006" y="1028.2" as="targetPoint" />
          </mxGeometry>
        </mxCell>
        <mxCell id="f2Kt3mZNnF3RPxqmG0qW-16" value="1" style="text;html=1;align=center;verticalAlign=middle;whiteSpace=wrap;rounded=0;" vertex="1" parent="1">
          <mxGeometry x="480" y="725" width="60" height="30" as="geometry" />
        </mxCell>
        <mxCell id="f2Kt3mZNnF3RPxqmG0qW-18" value="1" style="text;html=1;align=center;verticalAlign=middle;whiteSpace=wrap;rounded=0;" vertex="1" parent="1">
          <mxGeometry x="330" y="1000" width="60" height="30" as="geometry" />
        </mxCell>
      </root>
    </mxGraphModel>
  </diagram>
  <diagram name="Page-4" id="Zd9kD-HwqvI152mkNkNr">
    <mxGraphModel dx="1434" dy="782" grid="1" gridSize="10" guides="1" tooltips="1" connect="1" arrows="1" fold="1" page="1" pageScale="1" pageWidth="850" pageHeight="1100" math="0" shadow="0">
      <root>
        <mxCell id="0" />
        <mxCell id="1" parent="0" />
      </root>
    </mxGraphModel>
  </diagram>
</mxfile>
